<?xml version="1.0" encoding="UTF-8"?>
<svg version="1.1" id="Layer_1" xmlns="http://www.w3.org/2000/svg" xmlns:xlink="http://www.w3.org/1999/xlink"
     viewBox="0 0 32 32" width="32" height="32" xml:space="preserve">
  <!-- Background -->
  <rect width="32" height="32" fill="#FFFFFF"/>

  <!-- Orange Wave -->
  <path style="fill:#FF6F00;" d="M2.5,25c0,0,5-0.44,6.88-4.38S8.75,8.12,18.75,8.12
    c1.88,0,4.38,0.94,5.63,1.88c6.25,4.38,3.12,13.12-3.75,11.25c0,0,2.5-0.13,2.5-3.75s-4.38-4.06-5-1.25c-0.5,1.88-0.19,8.75,8.75,9.38" 
    transform="scale(0.05) translate(2.5,2.5)" />

  <!-- Secondary Wave -->
  <path style="fill:#FF8A65;" d="M2.5,25c0,0,5-0.44,6.88-4.38S8.75,8.12,18.75,8.12" 
    transform="scale(0.05) translate(2.5,2.5)" />
</svg>
