<svg xmlns="http://www.w3.org/2000/svg" viewBox="0 0 100 100" width="100" height="100">
  <!-- Background Circle -->
  <circle cx="50" cy="50" r="48" fill="#FF6F00" stroke="#FF4500" stroke-width="2" />

  <!-- Waves -->
  <path d="M10 60 Q25 50 40 60 T70 60 Q85 50 100 60" fill="none" stroke="#FFFFFF" stroke-width="4" />
  <path d="M10 70 Q25 60 40 70 T70 70 Q85 60 100 70" fill="none" stroke="#FFFFFF" stroke-width="3" opacity="0.7" />
  <path d="M10 80 Q25 70 40 80 T70 80 Q85 70 100 80" fill="none" stroke="#FFFFFF" stroke-width="2" opacity="0.5" />

  <!-- Gear -->
  <g transform="translate(50, 30) scale(0.5)">
    <circle cx="0" cy="0" r="10" fill="#FFFFFF" />
    <path d="M10 0 L14 4 L18 0 L14 -4 Z" fill="#FFFFFF" />
    <path d="M0 10 L4 14 L0 18 L-4 14 Z" fill="#FFFFFF" />
    <path d="M-10 0 L-14 -4 L-18 0 L-14 4 Z" fill="#FFFFFF" />
    <path d="M0 -10 L-4 -14 L0 -18 L4 -14 Z" fill="#FFFFFF" />
    <circle cx="0" cy="0" r="6" fill="#FF6F00" />
  </g>

  <!-- Text -->
  <text x="50%" y="90%" font-family="Arial, sans-serif" font-size="10" fill="#FFFFFF" text-anchor="middle">T.I.D.E.</text>
</svg>
